<svg width="420" height="96" viewBox="0 0 420 96" fill="none" xmlns="http://www.w3.org/2000/svg">
  <rect width="420" height="96" rx="24" fill="#0F172A"/>
  <rect x="20" y="18" width="60" height="60" rx="18" fill="#E2E8F0"/>
  <path d="M38 48C38 40.268 44.268 34 52 34C59.732 34 66 40.268 66 48V52C66 59.732 59.732 66 52 66C44.268 66 38 59.732 38 52V48Z" fill="#22C55E"/>
  <path d="M48 49H56" stroke="#0F172A" stroke-width="4" stroke-linecap="round"/>
  <path d="M108 38H242" stroke="#F8FAFC" stroke-width="10" stroke-linecap="round"/>
  <path d="M108 60H182" stroke="#94A3B8" stroke-width="10" stroke-linecap="round"/>
  <path d="M263 33H309.728C320.21 33 328.708 41.498 328.708 51.98C328.708 62.462 320.21 70.96 309.728 70.96H293.7V51.476H309.12C312.361 51.476 314.988 48.849 314.988 45.608C314.988 42.367 312.361 39.74 309.12 39.74H277.756V70.96H263V33Z" fill="#F8FAFC"/>
  <path d="M339.941 33H354.697V70.96H339.941V33ZM347.319 27.64C342.813 27.64 339.118 24.334 339.118 20.114C339.118 15.894 342.813 12.588 347.319 12.588C351.826 12.588 355.52 15.894 355.52 20.114C355.52 24.334 351.826 27.64 347.319 27.64Z" fill="#F8FAFC"/>
  <path d="M366.914 70.96V33H381.67V37.72C384.49 34.078 388.929 31.92 394.801 31.92C405.686 31.92 412.411 39.308 412.411 50.564V70.96H397.654V52.628C397.654 46.727 394.634 43.365 389.425 43.365C383.962 43.365 381.67 47.141 381.67 52.763V70.96H366.914Z" fill="#F8FAFC"/>
</svg>
